Coordinates
version=1
nRows=9
nColumns=40
inDegrees=yes

Units are S.I. units (second, meters, Newtons, ...)
If the header above contains a line with 'inDegrees', this indicates whether rotational values are in degrees (yes) or radians (no).

endheader
time	pelvis_tilt	pelvis_list	pelvis_rotation	pelvis_tx	pelvis_ty	pelvis_tz	hip_flexion_r	hip_adduction_r	hip_rotation_r	knee_angle_r	knee_angle_r_beta	ankle_angle_r	subtalar_angle_r	mtp_angle_r	hip_flexion_l	hip_adduction_l	hip_rotation_l	knee_angle_l	knee_angle_l_beta	ankle_angle_l	subtalar_angle_l	mtp_angle_l	lumbar_extension	lumbar_bending	lumbar_rotation	arm_flex_r	arm_add_r	arm_rot_r	elbow_flex_r	pro_sup_r	wrist_flex_r	wrist_dev_r	arm_flex_l	arm_add_l	arm_rot_l	elbow_flex_l	pro_sup_l	wrist_flex_l	wrist_dev_l
      7.09999999999999964473	      9.14814264561912615648	      3.51882032515699538777	   -175.47580870994693214016	      0.31909555386741211835	      0.86523398729937628371	     -0.59940662305371839036	     27.50154394646381916800	    -11.17410569701824485378	    -15.04300293007268685130	     18.64765819020726311805	      0.32546303320560376893	     -0.67380384160604300803	      0.00000000000000000000	      0.00000000000000000000	     30.93993491875367851662	    -15.48064917751993618822	     -1.20499269646604778572	     20.05792036993948457280	      0.35007675155828305025	      0.09386401198822344472	      0.00000000000000000000	      0.00000000000000000000	    -27.10695158353164302412	      2.79984540987545438284	      1.35477024427315950739	     24.60304633996291556741	    -21.28887399290698922982	     48.47288100021064849443	     22.92300097562144145513	     76.66555147432258365825	      0.00000000000000000000	      0.00000000000000000000	     33.75542910699267906693	    -11.42800857090941235583	     51.63292950480229137611	     12.39351711549743839669	     49.85718050154776648242	      0.00000000000000000000	      0.00000000000000000000
      7.10500000000000042633	      8.38475093375395630346	      3.18855425606787212800	   -175.92779695256015770610	      0.31773104943947316769	      0.86693868006219865219	     -0.60023272007903472058	     26.61104348570659183792	    -11.15997218733736495722	    -14.63052455915829064281	     18.47970669718093006395	      0.32253172666865398410	     -0.54373993373272688778	      0.00000000000000000000	      0.00000000000000000000	     29.53065745061720548392	    -15.58517220544587722486	     -2.49560616492076414730	     19.58155560975134434898	      0.34176261805252683423	      0.02944774377610875210	      0.00000000000000000000	      0.00000000000000000000	    -27.43515253339873183336	      2.22901737023919643832	      1.70522257972212654131	     24.45103901219258801802	    -21.29714697346191698557	     48.41205409296097883498	     22.83912071861384518456	     79.99067350676878618287	      0.00000000000000000000	      0.00000000000000000000	     33.62958419147926036885	    -11.96751730936716029419	     53.67998031329739916373	     12.93654613505671058249	     51.00602020285597859584	      0.00000000000000000000	      0.00000000000000000000
      7.11000000000000031974	      8.46268376222060858538	      3.39937472621684966256	   -175.60171440732929681872	      0.31705145185670779995	      0.86696492101284794440	     -0.59962461236401631837	     26.47323111788046290371	    -11.08952927251542774911	    -15.04779319081412936043	     18.34632357506033173422	      0.32020375202105982870	     -0.49182931506962396240	      0.00000000000000000000	      0.00000000000000000000	     29.68031653318936236019	    -15.58715408646831157569	     -1.96513762128635072202	     19.56074415387673326450	      0.34139938962538135536	      0.17184450796103697967	      0.00000000000000000000	      0.00000000000000000000	    -26.75779518167161441511	      2.57213783128103257170	      1.47528305464948106263	     24.21275676187013914387	    -21.40894535762403094736	     48.83801552245233068561	     22.77464566443916993421	     80.82119473670036313706	      0.00000000000000000000	      0.00000000000000000000	     33.29522400473754117911	    -11.95012647137036410072	     54.24851153587398755462	     12.80831490442112574613	     51.21431239167183946392	      0.00000000000000000000	      0.00000000000000000000
      7.11500000000000021316	      8.02282053148152840549	      3.48788124936120036423	   -175.43643462497786345011	      0.31591943753128920447	      0.86789012393858200323	     -0.59938947745073622997	     25.75846220433055222543	    -11.01259496182024655297	    -15.49922278733807168294	     18.12639203680694777177	      0.31636522254956245259	     -0.56436844852804879391	      0.00000000000000000000	      0.00000000000000000000	     29.08718506938658521221	    -15.68224266292627611108	     -2.08652628478298440839	     19.39050014754052853050	      0.33842807118302847824	      0.17165554352405074101	      0.00000000000000000000	      0.00000000000000000000	    -26.65765467208305850022	      2.71455496927823602960	      1.41875116656734379106	     23.81307285742116164329	    -21.34718076193581026700	     48.38733359617681628606	     22.69111588699591308682	     80.49960353677165869613	      0.00000000000000000000	      0.00000000000000000000	     33.09597698910473440037	    -12.04403982248632409835	     55.23789589341176053949	     12.80578861799055978565	     51.79191892482790393615	      0.00000000000000000000	      0.00000000000000000000
      7.12000000000000010658	      8.09059690695395339333	      3.54021976180660491451	   -175.31097646377250498517	      0.31513343538973498381	      0.86789591250925490762	     -0.59913537607304756527	     25.72062867379972672666	    -11.01255764026764083496	    -15.63410129203723464286	     18.12626234502496558321	      0.31636295900095406930	     -0.39734170368383947558	      0.00000000000000000000	      0.00000000000000000000	     29.15917790955076682735	    -15.68136587752849742117	     -2.04425514829354471047	     19.44639347018528141575	      0.33940359369305889148	      0.31548029525158288733	      0.00000000000000000000	      0.00000000000000000000	    -26.00113871516755637003	      2.79953859035528207500	      1.27900978933854747588	     23.38284719002421141454	    -21.35415025154538071206	     48.14985390425395195280	     22.79547557309580341212	     80.21699214595187754639	      0.00000000000000000000	      0.00000000000000000000	     32.68329159554480156658	    -12.04504486701360121970	     55.01126047034522059676	     12.91452851916999300386	     51.71899016191304099266	      0.00000000000000000000	      0.00000000000000000000
      7.12500000000000000000	      8.12406918938834543553	      3.61080272587891348834	   -175.20858992420733102335	      0.31432655078096483070	      0.86796678215382061516	     -0.59892287069893923590	     25.62077291388651900661	    -10.96580179909696006746	    -15.74289332855564893521	     18.06244512353678288719	      0.31524913836651080601	     -0.25411209467273149221	      0.00000000000000000000	      0.00000000000000000000	     29.15139448850631254118	    -15.70880399565942298068	     -1.99999806447949790567	     19.41737165863028380386	      0.33889706752653087074	      0.44787857551984455728	      0.00000000000000000000	      0.00000000000000000000	    -25.38404429220483748963	      2.89076530874548698336	      1.16377396987216430446	     22.99404043586070400806	    -21.32471420737627454400	     47.96762615748360047974	     22.77236727017471196177	     80.04026056885243178840	      0.00000000000000000000	      0.00000000000000000000	     32.29877551320141293445	    -12.00491018428209599733	     54.88551548601773077962	     12.88504001143984645239	     51.65892583511232771798	      0.00000000000000000000	      0.00000000000000000000
      7.12999999999999989342	      8.00689880170513923474	      3.66468813447289276652	   -175.14588940118204618557	      0.31369739142618374705	      0.86833025020615117739	     -0.59878249096925906247	     25.30527219792415749566	    -10.84776483802962410152	    -15.60803185259609904278	     17.80924548993350242654	      0.31082997109529025836	     -0.19724952866151163056	      0.00000000000000000000	      0.00000000000000000000	     28.88764600656271142043	    -15.73945521684967552289	     -1.93283587821722924183	     19.20708105545167754258	      0.33522680411505934028	      0.48352980166154746478	      0.00000000000000000000	      0.00000000000000000000	    -24.96928090318883164400	      2.96901984139078001235	      1.13821641402865214587	     22.80962318005167333013	    -21.25859025400424329177	     47.91694771134223884701	     22.44185189886909270740	     80.43050076816084015263	      0.00000000000000000000	      0.00000000000000000000	     32.08691194255346346154	    -11.80202592745518153095	     55.09209928670568956477	     12.42555941825015430879	     51.69604685759644979726	      0.00000000000000000000	      0.00000000000000000000
      7.13499999999999978684	      7.99661130043295997893	      3.71496939282998184240	   -174.99304784374612609099	      0.31304286075233528353	      0.86836897788537370513	     -0.59852995425887456360	     25.18784459858039781466	    -10.85355052673019926601	    -15.75260938819980971459	     17.83751834478156439445	      0.31132342550132741099	     -0.05986068462731818779	      0.00000000000000000000	      0.00000000000000000000	     28.93018350072192390599	    -15.74173862947209734386	     -1.84501639521246674214	     19.35261734563496816008	      0.33776689155989569890	      0.58736324140919848880	      0.00000000000000000000	      0.00000000000000000000	    -24.42768039848007788351	      3.03843346254985302579	      0.95121808067243129869	     22.37349748165953755574	    -21.25423146350025049856	     47.65811865015563597581	     22.64540355383173064752	     80.15457409411973799251	      0.00000000000000000000	      0.00000000000000000000	     31.72311090950714884684	    -11.89200735220835269956	     54.85191064331498722595	     12.56753143845770104292	     51.61194376924945004248	      0.00000000000000000000	      0.00000000000000000000
      7.13999999999999968026	      6.88697802026381378226	      3.84460096924319172373	   -174.59489234389414491488	      0.31161943971043698509	      0.87043132266740008696	     -0.59804671537215270405	     23.46912520831395099208	    -10.69287156430443097577	    -16.69148813536395792312	     17.16954891140139949357	      0.29966515958616263271	     -0.32379782569320042507	      0.00000000000000000000	      0.00000000000000000000	     27.49428667337873122278	    -15.87609343477684120671	     -1.98044645281844911011	     18.78764475875872363986	      0.32790625973539549998	      0.40814412271590427839	      0.00000000000000000000	      0.00000000000000000000	    -25.07213276476842622742	      3.33692931005014514767	      0.80960859936078322097	     22.16262970655745334625	    -21.13941592343495301520	     46.98074930410446370388	     22.32245872763385818871	     81.58991934282869351591	      0.00000000000000000000	      0.00000000000000000000	     31.79421159582854627956	    -11.92961632508206548664	     56.73648107655177597053	     12.40704735234418620848	     52.41486515836521675737	      0.00000000000000000000	      0.00000000000000000000
